{
	"asset":{
		"generator":"Khronos glTF Blender I/O v4.2.57",
		"version":"2.0"
	},
	"extensionsUsed":[
		"KHR_materials_specular"
	],
	"scene":0,
	"scenes":[
		{
			"name":"Scene",
			"nodes":[
				3
			]
		}
	],
	"nodes":[
		{
			"extras":{
				"MapChannel:1":"UVChannel_1",
				"MapChannel:2":"UVChannel_2",
				"MapChannel:3":"UVChannel_3",
				"MaxHandle":78
			},
			"mesh":0,
			"name":"castle_gate_01-group-0",
			"scale":[
				0.02539999969303608,
				0.02539999969303608,
				0.02539999969303608
			],
			"translation":[
				0,
				5.865163803100586,
				0
			]
		},
		{
			"extras":{
				"MapChannel:1":"UVChannel_1",
				"MapChannel:2":"UVChannel_2",
				"MapChannel:3":"UVChannel_3",
				"MaxHandle":80
			},
			"mesh":1,
			"name":"castle_gate_01_banners-group-0",
			"scale":[
				0.02539999969303608,
				0.02539999969303608,
				0.02539999969303608
			],
			"translation":[
				0,
				5.865163803100586,
				0
			]
		},
		{
			"extras":{
				"MapChannel:1":"UVChannel_1",
				"MapChannel:2":"UVChannel_2",
				"MapChannel:3":"UVChannel_3",
				"MaxHandle":79
			},
			"mesh":2,
			"name":"castle_gate_01_torches-group-0",
			"scale":[
				0.02539999969303608,
				0.02539999969303608,
				0.02539999969303608
			],
			"translation":[
				0,
				5.865163803100586,
				0
			]
		},
		{
			"children":[
				0,
				1,
				2
			],
			"name":"neutral_props_castle_gate_01-0"
		}
	],
	"materials":[
		{
			"doubleSided":true,
			"extensions":{
				"KHR_materials_specular":{
					"specularFactor":0
				}
			},
			"name":"castle_walls-0",
			"pbrMetallicRoughness":{
				"baseColorTexture":{
					"index":0
				},
				"metallicFactor":0,
				"roughnessFactor":0.8358513712882996
			}
		},
		{
			"doubleSided":true,
			"extensions":{
				"KHR_materials_specular":{
					"specularFactor":0
				}
			},
			"name":"castle_addons-0",
			"pbrMetallicRoughness":{
				"baseColorTexture":{
					"index":1
				},
				"metallicFactor":0,
				"roughnessFactor":0.858578622341156
			}
		}
	],
	"meshes":[
		{
			"name":"castle_gate_01-mesh-0",
			"primitives":[
				{
					"attributes":{
						"POSITION":0,
						"NORMAL":1,
						"TEXCOORD_0":2,
						"TEXCOORD_1":3,
						"TEXCOORD_2":4,
						"COLOR_0":5,
						"COLOR_1":6
					},
					"indices":7,
					"material":0
				}
			]
		},
		{
			"name":"castle_gate_01_banners-mesh-0",
			"primitives":[
				{
					"attributes":{
						"POSITION":8,
						"NORMAL":9,
						"TEXCOORD_0":10,
						"TEXCOORD_1":11,
						"TEXCOORD_2":12,
						"COLOR_0":13,
						"COLOR_1":14
					},
					"indices":15,
					"material":1
				}
			]
		},
		{
			"name":"castle_gate_01_torches-mesh-0",
			"primitives":[
				{
					"attributes":{
						"POSITION":16,
						"NORMAL":17,
						"TEXCOORD_0":18,
						"TEXCOORD_1":19,
						"TEXCOORD_2":20,
						"COLOR_0":21,
						"COLOR_1":22
					},
					"indices":23,
					"material":1
				}
			]
		}
	],
	"textures":[
		{
			"sampler":0,
			"source":0
		},
		{
			"sampler":0,
			"source":1
		}
	],
	"images":[
		{
			"mimeType":"image/png",
			"name":"castle_atlas",
			"uri":"castle_atlas.png"
		},
		{
			"mimeType":"image/png",
			"name":"castle_atlas_addons",
			"uri":"castle_atlas_addons.png"
		}
	],
	"accessors":[
		{
			"bufferView":0,
			"componentType":5126,
			"count":4746,
			"max":[
				341.17633056640625,
				231.87905883789062,
				107.36962890625
			],
			"min":[
				-341.17633056640625,
				-231.87911987304688,
				-110.19189453125
			],
			"type":"VEC3"
		},
		{
			"bufferView":1,
			"componentType":5126,
			"count":4746,
			"type":"VEC3"
		},
		{
			"bufferView":2,
			"componentType":5126,
			"count":4746,
			"type":"VEC2"
		},
		{
			"bufferView":3,
			"componentType":5126,
			"count":4746,
			"type":"VEC2"
		},
		{
			"bufferView":4,
			"componentType":5126,
			"count":4746,
			"type":"VEC2"
		},
		{
			"bufferView":5,
			"componentType":5121,
			"count":4746,
			"normalized":true,
			"type":"VEC4"
		},
		{
			"bufferView":6,
			"componentType":5126,
			"count":4746,
			"type":"VEC3"
		},
		{
			"bufferView":7,
			"componentType":5123,
			"count":9216,
			"type":"SCALAR"
		},
		{
			"bufferView":8,
			"componentType":5126,
			"count":72,
			"max":[
				250.81298828125,
				168.0965576171875,
				95.71337890625
			],
			"min":[
				-252.1427764892578,
				35.1448974609375,
				92.2391357421875
			],
			"type":"VEC3"
		},
		{
			"bufferView":9,
			"componentType":5126,
			"count":72,
			"type":"VEC3"
		},
		{
			"bufferView":10,
			"componentType":5126,
			"count":72,
			"type":"VEC2"
		},
		{
			"bufferView":11,
			"componentType":5126,
			"count":72,
			"type":"VEC2"
		},
		{
			"bufferView":12,
			"componentType":5126,
			"count":72,
			"type":"VEC2"
		},
		{
			"bufferView":13,
			"componentType":5121,
			"count":72,
			"normalized":true,
			"type":"VEC4"
		},
		{
			"bufferView":14,
			"componentType":5126,
			"count":72,
			"type":"VEC3"
		},
		{
			"bufferView":15,
			"componentType":5123,
			"count":72,
			"type":"SCALAR"
		},
		{
			"bufferView":16,
			"componentType":5126,
			"count":1600,
			"max":[
				257.375,
				171.97882080078125,
				110.1915283203125
			],
			"min":[
				-259.693115234375,
				-145.159912109375,
				52.974609375
			],
			"type":"VEC3"
		},
		{
			"bufferView":17,
			"componentType":5126,
			"count":1600,
			"type":"VEC3"
		},
		{
			"bufferView":18,
			"componentType":5126,
			"count":1600,
			"type":"VEC2"
		},
		{
			"bufferView":19,
			"componentType":5126,
			"count":1600,
			"type":"VEC2"
		},
		{
			"bufferView":20,
			"componentType":5126,
			"count":1600,
			"type":"VEC2"
		},
		{
			"bufferView":21,
			"componentType":5121,
			"count":1600,
			"normalized":true,
			"type":"VEC4"
		},
		{
			"bufferView":22,
			"componentType":5126,
			"count":1600,
			"type":"VEC3"
		},
		{
			"bufferView":23,
			"componentType":5123,
			"count":2088,
			"type":"SCALAR"
		}
	],
	"bufferViews":[
		{
			"buffer":0,
			"byteLength":56952,
			"byteOffset":0,
			"target":34962
		},
		{
			"buffer":0,
			"byteLength":56952,
			"byteOffset":56952,
			"target":34962
		},
		{
			"buffer":0,
			"byteLength":37968,
			"byteOffset":113904,
			"target":34962
		},
		{
			"buffer":0,
			"byteLength":37968,
			"byteOffset":151872,
			"target":34962
		},
		{
			"buffer":0,
			"byteLength":37968,
			"byteOffset":189840,
			"target":34962
		},
		{
			"buffer":0,
			"byteLength":18984,
			"byteOffset":227808,
			"target":34962
		},
		{
			"buffer":0,
			"byteLength":56952,
			"byteOffset":246792,
			"target":34962
		},
		{
			"buffer":0,
			"byteLength":18432,
			"byteOffset":303744,
			"target":34963
		},
		{
			"buffer":0,
			"byteLength":864,
			"byteOffset":322176,
			"target":34962
		},
		{
			"buffer":0,
			"byteLength":864,
			"byteOffset":323040,
			"target":34962
		},
		{
			"buffer":0,
			"byteLength":576,
			"byteOffset":323904,
			"target":34962
		},
		{
			"buffer":0,
			"byteLength":576,
			"byteOffset":324480,
			"target":34962
		},
		{
			"buffer":0,
			"byteLength":576,
			"byteOffset":325056,
			"target":34962
		},
		{
			"buffer":0,
			"byteLength":288,
			"byteOffset":325632,
			"target":34962
		},
		{
			"buffer":0,
			"byteLength":864,
			"byteOffset":325920,
			"target":34962
		},
		{
			"buffer":0,
			"byteLength":144,
			"byteOffset":326784,
			"target":34963
		},
		{
			"buffer":0,
			"byteLength":19200,
			"byteOffset":326928,
			"target":34962
		},
		{
			"buffer":0,
			"byteLength":19200,
			"byteOffset":346128,
			"target":34962
		},
		{
			"buffer":0,
			"byteLength":12800,
			"byteOffset":365328,
			"target":34962
		},
		{
			"buffer":0,
			"byteLength":12800,
			"byteOffset":378128,
			"target":34962
		},
		{
			"buffer":0,
			"byteLength":12800,
			"byteOffset":390928,
			"target":34962
		},
		{
			"buffer":0,
			"byteLength":6400,
			"byteOffset":403728,
			"target":34962
		},
		{
			"buffer":0,
			"byteLength":19200,
			"byteOffset":410128,
			"target":34962
		},
		{
			"buffer":0,
			"byteLength":4176,
			"byteOffset":429328,
			"target":34963
		}
	],
	"samplers":[
		{
			"magFilter":9729,
			"minFilter":9987
		}
	],
	"buffers":[
		{
			"byteLength":433504,
			"uri":"neutral_props_castle_gate_01.bin"
		}
	]
}
