{
	"asset":{
		"generator":"Khronos glTF Blender I/O v4.2.57",
		"version":"2.0"
	},
	"extensionsUsed":[
		"KHR_materials_specular"
	],
	"scene":0,
	"scenes":[
		{
			"name":"Scene",
			"nodes":[
				1
			]
		}
	],
	"nodes":[
		{
			"extras":{
				"MapChannel:1":"UVChannel_1",
				"MaxHandle":1
			},
			"mesh":0,
			"name":"neutral_props_tree_01-group-0",
			"scale":[
				0.02539999969303608,
				0.02539999969303608,
				0.02539999969303608
			]
		},
		{
			"children":[
				0
			],
			"name":"neutral_props_tree_01-0"
		}
	],
	"materials":[
		{
			"alphaMode":"BLEND",
			"doubleSided":true,
			"extensions":{
				"KHR_materials_specular":{
					"specularFactor":0
				}
			},
			"name":"castle_tree-0",
			"pbrMetallicRoughness":{
				"baseColorTexture":{
					"index":0
				},
				"roughnessFactor":0.858578622341156
			}
		}
	],
	"meshes":[
		{
			"name":"neutral_props_tree_01-mesh-0",
			"primitives":[
				{
					"attributes":{
						"POSITION":0,
						"NORMAL":1,
						"TEXCOORD_0":2
					},
					"indices":3,
					"material":0
				}
			]
		}
	],
	"textures":[
		{
			"sampler":0,
			"source":0
		}
	],
	"images":[
		{
			"mimeType":"image/png",
			"name":"castle_foliage",
			"uri":"castle_foliage.png"
		}
	],
	"accessors":[
		{
			"bufferView":0,
			"componentType":5126,
			"count":285,
			"max":[
				60.69747543334961,
				201.20394897460938,
				54.59894943237305
			],
			"min":[
				-42.881324768066406,
				0.20874738693237305,
				-52.801979064941406
			],
			"type":"VEC3"
		},
		{
			"bufferView":1,
			"componentType":5126,
			"count":285,
			"type":"VEC3"
		},
		{
			"bufferView":2,
			"componentType":5126,
			"count":285,
			"type":"VEC2"
		},
		{
			"bufferView":3,
			"componentType":5123,
			"count":1125,
			"type":"SCALAR"
		}
	],
	"bufferViews":[
		{
			"buffer":0,
			"byteLength":3420,
			"byteOffset":0,
			"target":34962
		},
		{
			"buffer":0,
			"byteLength":3420,
			"byteOffset":3420,
			"target":34962
		},
		{
			"buffer":0,
			"byteLength":2280,
			"byteOffset":6840,
			"target":34962
		},
		{
			"buffer":0,
			"byteLength":2250,
			"byteOffset":9120,
			"target":34963
		}
	],
	"samplers":[
		{
			"magFilter":9729,
			"minFilter":9987
		}
	],
	"buffers":[
		{
			"byteLength":11372,
			"uri":"neutral_props_tree_01.bin"
		}
	]
}
