{
	"asset":{
		"generator":"Khronos glTF Blender I/O v4.2.57",
		"version":"2.0"
	},
	"extensionsUsed":[
		"KHR_materials_specular"
	],
	"scene":0,
	"scenes":[
		{
			"name":"Scene",
			"nodes":[
				1
			]
		}
	],
	"nodes":[
		{
			"mesh":0,
			"name":"castle_wall_01-group-0",
			"scale":[
				0.009999999776482582,
				0.009999999776482582,
				0.009999999776482582
			],
			"translation":[
				0,
				1.8947772979736328,
				0
			]
		},
		{
			"children":[
				0
			],
			"name":"neutral_props_castle_wall_01-0"
		}
	],
	"materials":[
		{
			"doubleSided":true,
			"extensions":{
				"KHR_materials_specular":{
					"specularFactor":0
				}
			},
			"name":"castle_walls-0",
			"pbrMetallicRoughness":{
				"baseColorTexture":{
					"index":0
				},
				"metallicFactor":0,
				"roughnessFactor":0.8090909123420715
			}
		}
	],
	"meshes":[
		{
			"name":"castle_wall_01-mesh-0",
			"primitives":[
				{
					"attributes":{
						"POSITION":0,
						"NORMAL":1,
						"TEXCOORD_0":2,
						"TEXCOORD_1":3,
						"TEXCOORD_2":4,
						"COLOR_0":5,
						"COLOR_1":6,
						"COLOR_2":7
					},
					"indices":8,
					"material":0
				}
			]
		}
	],
	"textures":[
		{
			"sampler":0,
			"source":0
		}
	],
	"images":[
		{
			"mimeType":"image/png",
			"name":"castle_atlas",
			"uri":"castle_atlas.png"
		}
	],
	"accessors":[
		{
			"bufferView":0,
			"componentType":5126,
			"count":1255,
			"max":[
				293.9214172363281,
				190.2157440185547,
				50.604736328125
			],
			"min":[
				-293.9213562011719,
				-190.21575927734375,
				-50.60467529296875
			],
			"type":"VEC3"
		},
		{
			"bufferView":1,
			"componentType":5126,
			"count":1255,
			"type":"VEC3"
		},
		{
			"bufferView":2,
			"componentType":5126,
			"count":1255,
			"type":"VEC2"
		},
		{
			"bufferView":3,
			"componentType":5126,
			"count":1255,
			"type":"VEC2"
		},
		{
			"bufferView":4,
			"componentType":5126,
			"count":1255,
			"type":"VEC2"
		},
		{
			"bufferView":5,
			"componentType":5121,
			"count":1255,
			"normalized":true,
			"type":"VEC4"
		},
		{
			"bufferView":6,
			"componentType":5126,
			"count":1255,
			"type":"VEC3"
		},
		{
			"bufferView":7,
			"componentType":5126,
			"count":1255,
			"type":"VEC3"
		},
		{
			"bufferView":8,
			"componentType":5123,
			"count":2094,
			"type":"SCALAR"
		}
	],
	"bufferViews":[
		{
			"buffer":0,
			"byteLength":15060,
			"byteOffset":0,
			"target":34962
		},
		{
			"buffer":0,
			"byteLength":15060,
			"byteOffset":15060,
			"target":34962
		},
		{
			"buffer":0,
			"byteLength":10040,
			"byteOffset":30120,
			"target":34962
		},
		{
			"buffer":0,
			"byteLength":10040,
			"byteOffset":40160,
			"target":34962
		},
		{
			"buffer":0,
			"byteLength":10040,
			"byteOffset":50200,
			"target":34962
		},
		{
			"buffer":0,
			"byteLength":5020,
			"byteOffset":60240,
			"target":34962
		},
		{
			"buffer":0,
			"byteLength":15060,
			"byteOffset":65260,
			"target":34962
		},
		{
			"buffer":0,
			"byteLength":15060,
			"byteOffset":80320,
			"target":34962
		},
		{
			"buffer":0,
			"byteLength":4188,
			"byteOffset":95380,
			"target":34963
		}
	],
	"samplers":[
		{
			"magFilter":9729,
			"minFilter":9987
		}
	],
	"buffers":[
		{
			"byteLength":99568,
			"uri":"neutral_props_castle_wall_01.bin"
		}
	]
}
