{
	"asset":{
		"generator":"Khronos glTF Blender I/O v4.2.57",
		"version":"2.0"
	},
	"extensionsUsed":[
		"KHR_materials_specular"
	],
	"scene":0,
	"scenes":[
		{
			"name":"Scene",
			"nodes":[
				3
			]
		}
	],
	"nodes":[
		{
			"mesh":0,
			"name":"alpha_Castle_Fort01_group-0"
		},
		{
			"mesh":1,
			"name":"misc_Castle_Fort01_group-0"
		},
		{
			"children":[
				0,
				1
			],
			"mesh":2,
			"name":"castle_mesh-group-0",
			"scale":[
				0.02500000037252903,
				0.02500000037252903,
				0.02500000037252903
			],
			"translation":[
				0,
				11.75,
				0
			]
		},
		{
			"children":[
				2
			],
			"name":"neutral_props_castle_fort_01-0"
		}
	],
	"materials":[
		{
			"doubleSided":true,
			"extensions":{
				"KHR_materials_specular":{
					"specularFactor":0
				}
			},
			"name":"castle_banners_and_props-material-0",
			"pbrMetallicRoughness":{
				"baseColorTexture":{
					"index":0
				},
				"roughnessFactor":0.858578622341156
			}
		},
		{
			"doubleSided":true,
			"extensions":{
				"KHR_materials_specular":{
					"specularFactor":0
				}
			},
			"name":"castle_walls-0",
			"pbrMetallicRoughness":{
				"baseColorTexture":{
					"index":1
				},
				"metallicFactor":0,
				"roughnessFactor":0.800000011920929
			}
		}
	],
	"meshes":[
		{
			"name":"alpha_Castle_Fort01_mesh-0",
			"primitives":[
				{
					"attributes":{
						"POSITION":0,
						"NORMAL":1,
						"TEXCOORD_0":2,
						"TEXCOORD_1":3,
						"TEXCOORD_2":4,
						"COLOR_0":5,
						"COLOR_1":6,
						"COLOR_2":7
					},
					"indices":8,
					"material":0
				}
			]
		},
		{
			"name":"misc_Castle_Fort01_mesh-0",
			"primitives":[
				{
					"attributes":{
						"POSITION":9,
						"NORMAL":10,
						"TEXCOORD_0":11,
						"TEXCOORD_1":12,
						"TEXCOORD_2":13,
						"COLOR_0":14,
						"COLOR_1":15,
						"COLOR_2":16
					},
					"indices":17,
					"material":0
				}
			]
		},
		{
			"name":"castle_mesh_01-mesh-0",
			"primitives":[
				{
					"attributes":{
						"POSITION":18,
						"NORMAL":19,
						"TEXCOORD_0":20,
						"TEXCOORD_1":21,
						"TEXCOORD_2":22,
						"COLOR_0":23,
						"COLOR_1":24,
						"COLOR_2":25
					},
					"indices":26,
					"material":1
				}
			]
		}
	],
	"textures":[
		{
			"sampler":0,
			"source":0
		},
		{
			"sampler":0,
			"source":1
		}
	],
	"images":[
		{
			"mimeType":"image/png",
			"name":"castle_atlas_addons",
			"uri":"castle_atlas_addons.png"
		},
		{
			"mimeType":"image/png",
			"name":"castle_atlas",
			"uri":"castle_atlas.png"
		}
	],
	"accessors":[
		{
			"bufferView":0,
			"componentType":5126,
			"count":264,
			"max":[
				297.1640625,
				-61.515411376953125,
				279.3975830078125
			],
			"min":[
				-295.3560791015625,
				-210.61550903320312,
				177.694091796875
			],
			"type":"VEC3"
		},
		{
			"bufferView":1,
			"componentType":5126,
			"count":264,
			"type":"VEC3"
		},
		{
			"bufferView":2,
			"componentType":5126,
			"count":264,
			"type":"VEC2"
		},
		{
			"bufferView":3,
			"componentType":5126,
			"count":264,
			"type":"VEC2"
		},
		{
			"bufferView":4,
			"componentType":5126,
			"count":264,
			"type":"VEC2"
		},
		{
			"bufferView":5,
			"componentType":5121,
			"count":264,
			"normalized":true,
			"type":"VEC4"
		},
		{
			"bufferView":6,
			"componentType":5126,
			"count":264,
			"type":"VEC3"
		},
		{
			"bufferView":7,
			"componentType":5126,
			"count":264,
			"type":"VEC3"
		},
		{
			"bufferView":8,
			"componentType":5123,
			"count":288,
			"type":"SCALAR"
		},
		{
			"bufferView":9,
			"componentType":5126,
			"count":2135,
			"max":[
				301.901123046875,
				-57.63311767578125,
				306.9967041015625
			],
			"min":[
				-300.999755859375,
				-396.7999572753906,
				176.4515380859375
			],
			"type":"VEC3"
		},
		{
			"bufferView":10,
			"componentType":5126,
			"count":2135,
			"type":"VEC3"
		},
		{
			"bufferView":11,
			"componentType":5126,
			"count":2135,
			"type":"VEC2"
		},
		{
			"bufferView":12,
			"componentType":5126,
			"count":2135,
			"type":"VEC2"
		},
		{
			"bufferView":13,
			"componentType":5126,
			"count":2135,
			"type":"VEC2"
		},
		{
			"bufferView":14,
			"componentType":5121,
			"count":2135,
			"normalized":true,
			"type":"VEC4"
		},
		{
			"bufferView":15,
			"componentType":5126,
			"count":2135,
			"type":"VEC3"
		},
		{
			"bufferView":16,
			"componentType":5126,
			"count":2135,
			"type":"VEC3"
		},
		{
			"bufferView":17,
			"componentType":5123,
			"count":2592,
			"type":"SCALAR"
		},
		{
			"bufferView":18,
			"componentType":5126,
			"count":7635,
			"max":[
				309.7196044921875,
				479.8663024902344,
				288.1138916015625
			],
			"min":[
				-309.7197265625,
				-479.8664245605469,
				-306.99658203125
			],
			"type":"VEC3"
		},
		{
			"bufferView":19,
			"componentType":5126,
			"count":7635,
			"type":"VEC3"
		},
		{
			"bufferView":20,
			"componentType":5126,
			"count":7635,
			"type":"VEC2"
		},
		{
			"bufferView":21,
			"componentType":5126,
			"count":7635,
			"type":"VEC2"
		},
		{
			"bufferView":22,
			"componentType":5126,
			"count":7635,
			"type":"VEC2"
		},
		{
			"bufferView":23,
			"componentType":5121,
			"count":7635,
			"normalized":true,
			"type":"VEC4"
		},
		{
			"bufferView":24,
			"componentType":5126,
			"count":7635,
			"type":"VEC3"
		},
		{
			"bufferView":25,
			"componentType":5126,
			"count":7635,
			"type":"VEC3"
		},
		{
			"bufferView":26,
			"componentType":5123,
			"count":14430,
			"type":"SCALAR"
		}
	],
	"bufferViews":[
		{
			"buffer":0,
			"byteLength":3168,
			"byteOffset":0,
			"target":34962
		},
		{
			"buffer":0,
			"byteLength":3168,
			"byteOffset":3168,
			"target":34962
		},
		{
			"buffer":0,
			"byteLength":2112,
			"byteOffset":6336,
			"target":34962
		},
		{
			"buffer":0,
			"byteLength":2112,
			"byteOffset":8448,
			"target":34962
		},
		{
			"buffer":0,
			"byteLength":2112,
			"byteOffset":10560,
			"target":34962
		},
		{
			"buffer":0,
			"byteLength":1056,
			"byteOffset":12672,
			"target":34962
		},
		{
			"buffer":0,
			"byteLength":3168,
			"byteOffset":13728,
			"target":34962
		},
		{
			"buffer":0,
			"byteLength":3168,
			"byteOffset":16896,
			"target":34962
		},
		{
			"buffer":0,
			"byteLength":576,
			"byteOffset":20064,
			"target":34963
		},
		{
			"buffer":0,
			"byteLength":25620,
			"byteOffset":20640,
			"target":34962
		},
		{
			"buffer":0,
			"byteLength":25620,
			"byteOffset":46260,
			"target":34962
		},
		{
			"buffer":0,
			"byteLength":17080,
			"byteOffset":71880,
			"target":34962
		},
		{
			"buffer":0,
			"byteLength":17080,
			"byteOffset":88960,
			"target":34962
		},
		{
			"buffer":0,
			"byteLength":17080,
			"byteOffset":106040,
			"target":34962
		},
		{
			"buffer":0,
			"byteLength":8540,
			"byteOffset":123120,
			"target":34962
		},
		{
			"buffer":0,
			"byteLength":25620,
			"byteOffset":131660,
			"target":34962
		},
		{
			"buffer":0,
			"byteLength":25620,
			"byteOffset":157280,
			"target":34962
		},
		{
			"buffer":0,
			"byteLength":5184,
			"byteOffset":182900,
			"target":34963
		},
		{
			"buffer":0,
			"byteLength":91620,
			"byteOffset":188084,
			"target":34962
		},
		{
			"buffer":0,
			"byteLength":91620,
			"byteOffset":279704,
			"target":34962
		},
		{
			"buffer":0,
			"byteLength":61080,
			"byteOffset":371324,
			"target":34962
		},
		{
			"buffer":0,
			"byteLength":61080,
			"byteOffset":432404,
			"target":34962
		},
		{
			"buffer":0,
			"byteLength":61080,
			"byteOffset":493484,
			"target":34962
		},
		{
			"buffer":0,
			"byteLength":30540,
			"byteOffset":554564,
			"target":34962
		},
		{
			"buffer":0,
			"byteLength":91620,
			"byteOffset":585104,
			"target":34962
		},
		{
			"buffer":0,
			"byteLength":91620,
			"byteOffset":676724,
			"target":34962
		},
		{
			"buffer":0,
			"byteLength":28860,
			"byteOffset":768344,
			"target":34963
		}
	],
	"samplers":[
		{
			"magFilter":9729,
			"minFilter":9987
		}
	],
	"buffers":[
		{
			"byteLength":797204,
			"uri":"neutral_props_castle_fort_01.bin"
		}
	]
}
