{
	"asset":{
		"generator":"Khronos glTF Blender I/O v4.2.57",
		"version":"2.0"
	},
	"extensionsUsed":[
		"KHR_materials_specular"
	],
	"scene":0,
	"scenes":[
		{
			"name":"Scene",
			"nodes":[
				1
			]
		}
	],
	"nodes":[
		{
			"mesh":0,
			"name":"Object7152-0",
			"scale":[
				0.02539999969303608,
				0.02539999969303608,
				0.02539999969303608
			],
			"translation":[
				0,
				1.454567790031433,
				0
			]
		},
		{
			"children":[
				0
			],
			"name":"neutral_props_castle_bridge_01-0"
		}
	],
	"materials":[
		{
			"doubleSided":true,
			"extensions":{
				"KHR_materials_specular":{
					"specularFactor":0
				}
			},
			"name":"castle_walls-0",
			"pbrMetallicRoughness":{
				"baseColorTexture":{
					"index":0
				},
				"roughnessFactor":0.858578622341156
			}
		}
	],
	"meshes":[
		{
			"name":"Mesh_023-0",
			"primitives":[
				{
					"attributes":{
						"POSITION":0,
						"NORMAL":1,
						"TEXCOORD_0":2,
						"TEXCOORD_1":3,
						"TEXCOORD_2":4,
						"COLOR_0":5,
						"COLOR_1":6
					},
					"indices":7,
					"material":0
				}
			]
		}
	],
	"textures":[
		{
			"sampler":0,
			"source":0
		}
	],
	"images":[
		{
			"mimeType":"image/png",
			"name":"castle_atlas",
			"uri":"castle_atlas.png"
		}
	],
	"accessors":[
		{
			"bufferView":0,
			"componentType":5126,
			"count":1018,
			"max":[
				237.739013671875,
				58.671051025390625,
				39.60406494140625
			],
			"min":[
				-239.25128173828125,
				-58.67095947265625,
				-40.81787109375
			],
			"type":"VEC3"
		},
		{
			"bufferView":1,
			"componentType":5126,
			"count":1018,
			"type":"VEC3"
		},
		{
			"bufferView":2,
			"componentType":5126,
			"count":1018,
			"type":"VEC2"
		},
		{
			"bufferView":3,
			"componentType":5126,
			"count":1018,
			"type":"VEC2"
		},
		{
			"bufferView":4,
			"componentType":5126,
			"count":1018,
			"type":"VEC2"
		},
		{
			"bufferView":5,
			"componentType":5126,
			"count":1018,
			"type":"VEC3"
		},
		{
			"bufferView":6,
			"componentType":5126,
			"count":1018,
			"type":"VEC3"
		},
		{
			"bufferView":7,
			"componentType":5123,
			"count":1386,
			"type":"SCALAR"
		}
	],
	"bufferViews":[
		{
			"buffer":0,
			"byteLength":12216,
			"byteOffset":0,
			"target":34962
		},
		{
			"buffer":0,
			"byteLength":12216,
			"byteOffset":12216,
			"target":34962
		},
		{
			"buffer":0,
			"byteLength":8144,
			"byteOffset":24432,
			"target":34962
		},
		{
			"buffer":0,
			"byteLength":8144,
			"byteOffset":32576,
			"target":34962
		},
		{
			"buffer":0,
			"byteLength":8144,
			"byteOffset":40720,
			"target":34962
		},
		{
			"buffer":0,
			"byteLength":12216,
			"byteOffset":48864,
			"target":34962
		},
		{
			"buffer":0,
			"byteLength":12216,
			"byteOffset":61080,
			"target":34962
		},
		{
			"buffer":0,
			"byteLength":2772,
			"byteOffset":73296,
			"target":34963
		}
	],
	"samplers":[
		{
			"magFilter":9729,
			"minFilter":9987
		}
	],
	"buffers":[
		{
			"byteLength":76068,
			"uri":"neutral_props_castle_bridge_01.bin"
		}
	]
}
