{
	"asset":{
		"generator":"Khronos glTF Blender I/O v4.2.57",
		"version":"2.0"
	},
	"extensionsUsed":[
		"KHR_materials_specular"
	],
	"scene":0,
	"scenes":[
		{
			"name":"Scene",
			"nodes":[
				3
			]
		}
	],
	"nodes":[
		{
			"extras":{
				"MapChannel:1":"UVChannel_1",
				"MapChannel:2":"UVChannel_2",
				"MapChannel:3":"UVChannel_3",
				"MaxHandle":91
			},
			"mesh":0,
			"name":"castle_tower_banner_01-group-0",
			"scale":[
				0.02539999969303608,
				0.02539999969303608,
				0.02539999969303608
			],
			"translation":[
				0,
				7.790014266967773,
				0
			]
		},
		{
			"extras":{
				"MapChannel:1":"UVChannel_1",
				"MapChannel:2":"UVChannel_2",
				"MapChannel:3":"UVChannel_3",
				"MaxHandle":89
			},
			"mesh":1,
			"name":"castle_tower_torches_01-group-0",
			"scale":[
				0.02539999969303608,
				0.02539999969303608,
				0.02539999969303608
			],
			"translation":[
				0,
				7.790014266967773,
				0
			]
		},
		{
			"extras":{
				"MapChannel:1":"UVChannel_1",
				"MapChannel:2":"UVChannel_2",
				"MapChannel:3":"UVChannel_3",
				"MaxHandle":81
			},
			"mesh":2,
			"name":"castle_tower_wall_01-group-0",
			"scale":[
				0.02539999969303608,
				0.02539999969303608,
				0.02539999969303608
			],
			"translation":[
				0,
				7.790014266967773,
				0
			]
		},
		{
			"children":[
				0,
				1,
				2
			],
			"name":"neutral_props_castle_tower_01-0"
		}
	],
	"materials":[
		{
			"doubleSided":true,
			"extensions":{
				"KHR_materials_specular":{
					"specularFactor":0
				}
			},
			"name":"castle_addons-0.002",
			"pbrMetallicRoughness":{
				"baseColorTexture":{
					"index":0
				},
				"roughnessFactor":0.858578622341156
			}
		},
		{
			"doubleSided":true,
			"extensions":{
				"KHR_materials_specular":{
					"specularFactor":0
				}
			},
			"name":"castle_walls-0.002",
			"pbrMetallicRoughness":{
				"baseColorTexture":{
					"index":1
				},
				"metallicFactor":0,
				"roughnessFactor":0.858578622341156
			}
		}
	],
	"meshes":[
		{
			"name":"castle_tower_banner_01-mesh-0",
			"primitives":[
				{
					"attributes":{
						"POSITION":0,
						"NORMAL":1,
						"TEXCOORD_0":2,
						"TEXCOORD_1":3,
						"TEXCOORD_2":4,
						"COLOR_0":5,
						"COLOR_1":6
					},
					"indices":7,
					"material":0
				}
			]
		},
		{
			"name":"castle_tower_torches_01-mesh-0",
			"primitives":[
				{
					"attributes":{
						"POSITION":8,
						"NORMAL":9,
						"TEXCOORD_0":10,
						"TEXCOORD_1":11,
						"TEXCOORD_2":12,
						"COLOR_0":13,
						"COLOR_1":14
					},
					"indices":15,
					"material":0
				}
			]
		},
		{
			"name":"castle_tower_wall_01-mesh-0",
			"primitives":[
				{
					"attributes":{
						"POSITION":16,
						"NORMAL":17,
						"TEXCOORD_0":18,
						"TEXCOORD_1":19,
						"TEXCOORD_2":20,
						"COLOR_0":21,
						"COLOR_1":22
					},
					"indices":23,
					"material":1
				}
			]
		}
	],
	"textures":[
		{
			"sampler":0,
			"source":0
		},
		{
			"sampler":0,
			"source":1
		}
	],
	"images":[
		{
			"mimeType":"image/png",
			"name":"castle_atlas_addons",
			"uri":"castle_atlas_addons.png"
		},
		{
			"mimeType":"image/png",
			"name":"castle_atlas",
			"uri":"castle_atlas.png"
		}
	],
	"accessors":[
		{
			"bufferView":0,
			"componentType":5126,
			"count":224,
			"max":[
				68.029541015625,
				239.02197265625,
				103.2076416015625
			],
			"min":[
				-85.79638671875,
				-52.41127014160156,
				-22.1820068359375
			],
			"type":"VEC3"
		},
		{
			"bufferView":1,
			"componentType":5126,
			"count":224,
			"type":"VEC3"
		},
		{
			"bufferView":2,
			"componentType":5126,
			"count":224,
			"type":"VEC2"
		},
		{
			"bufferView":3,
			"componentType":5126,
			"count":224,
			"type":"VEC2"
		},
		{
			"bufferView":4,
			"componentType":5126,
			"count":224,
			"type":"VEC2"
		},
		{
			"bufferView":5,
			"componentType":5121,
			"count":224,
			"normalized":true,
			"type":"VEC4"
		},
		{
			"bufferView":6,
			"componentType":5126,
			"count":224,
			"type":"VEC3"
		},
		{
			"bufferView":7,
			"componentType":5123,
			"count":240,
			"type":"SCALAR"
		},
		{
			"bufferView":8,
			"componentType":5126,
			"count":2032,
			"max":[
				95.67364501953125,
				242.90423583984375,
				110.1015625
			],
			"min":[
				-85.852783203125,
				-190.48504638671875,
				-110.1016845703125
			],
			"type":"VEC3"
		},
		{
			"bufferView":9,
			"componentType":5126,
			"count":2032,
			"type":"VEC3"
		},
		{
			"bufferView":10,
			"componentType":5126,
			"count":2032,
			"type":"VEC2"
		},
		{
			"bufferView":11,
			"componentType":5126,
			"count":2032,
			"type":"VEC2"
		},
		{
			"bufferView":12,
			"componentType":5126,
			"count":2032,
			"type":"VEC2"
		},
		{
			"bufferView":13,
			"componentType":5121,
			"count":2032,
			"normalized":true,
			"type":"VEC4"
		},
		{
			"bufferView":14,
			"componentType":5126,
			"count":2032,
			"type":"VEC3"
		},
		{
			"bufferView":15,
			"componentType":5123,
			"count":2664,
			"type":"SCALAR"
		},
		{
			"bufferView":16,
			"componentType":5126,
			"count":2545,
			"max":[
				78.21044921875,
				308.07843017578125,
				82.206298828125
			],
			"min":[
				-95.6737060546875,
				-308.0784912109375,
				-91.6781005859375
			],
			"type":"VEC3"
		},
		{
			"bufferView":17,
			"componentType":5126,
			"count":2545,
			"type":"VEC3"
		},
		{
			"bufferView":18,
			"componentType":5126,
			"count":2545,
			"type":"VEC2"
		},
		{
			"bufferView":19,
			"componentType":5126,
			"count":2545,
			"type":"VEC2"
		},
		{
			"bufferView":20,
			"componentType":5126,
			"count":2545,
			"type":"VEC2"
		},
		{
			"bufferView":21,
			"componentType":5121,
			"count":2545,
			"normalized":true,
			"type":"VEC4"
		},
		{
			"bufferView":22,
			"componentType":5126,
			"count":2545,
			"type":"VEC3"
		},
		{
			"bufferView":23,
			"componentType":5123,
			"count":4506,
			"type":"SCALAR"
		}
	],
	"bufferViews":[
		{
			"buffer":0,
			"byteLength":2688,
			"byteOffset":0,
			"target":34962
		},
		{
			"buffer":0,
			"byteLength":2688,
			"byteOffset":2688,
			"target":34962
		},
		{
			"buffer":0,
			"byteLength":1792,
			"byteOffset":5376,
			"target":34962
		},
		{
			"buffer":0,
			"byteLength":1792,
			"byteOffset":7168,
			"target":34962
		},
		{
			"buffer":0,
			"byteLength":1792,
			"byteOffset":8960,
			"target":34962
		},
		{
			"buffer":0,
			"byteLength":896,
			"byteOffset":10752,
			"target":34962
		},
		{
			"buffer":0,
			"byteLength":2688,
			"byteOffset":11648,
			"target":34962
		},
		{
			"buffer":0,
			"byteLength":480,
			"byteOffset":14336,
			"target":34963
		},
		{
			"buffer":0,
			"byteLength":24384,
			"byteOffset":14816,
			"target":34962
		},
		{
			"buffer":0,
			"byteLength":24384,
			"byteOffset":39200,
			"target":34962
		},
		{
			"buffer":0,
			"byteLength":16256,
			"byteOffset":63584,
			"target":34962
		},
		{
			"buffer":0,
			"byteLength":16256,
			"byteOffset":79840,
			"target":34962
		},
		{
			"buffer":0,
			"byteLength":16256,
			"byteOffset":96096,
			"target":34962
		},
		{
			"buffer":0,
			"byteLength":8128,
			"byteOffset":112352,
			"target":34962
		},
		{
			"buffer":0,
			"byteLength":24384,
			"byteOffset":120480,
			"target":34962
		},
		{
			"buffer":0,
			"byteLength":5328,
			"byteOffset":144864,
			"target":34963
		},
		{
			"buffer":0,
			"byteLength":30540,
			"byteOffset":150192,
			"target":34962
		},
		{
			"buffer":0,
			"byteLength":30540,
			"byteOffset":180732,
			"target":34962
		},
		{
			"buffer":0,
			"byteLength":20360,
			"byteOffset":211272,
			"target":34962
		},
		{
			"buffer":0,
			"byteLength":20360,
			"byteOffset":231632,
			"target":34962
		},
		{
			"buffer":0,
			"byteLength":20360,
			"byteOffset":251992,
			"target":34962
		},
		{
			"buffer":0,
			"byteLength":10180,
			"byteOffset":272352,
			"target":34962
		},
		{
			"buffer":0,
			"byteLength":30540,
			"byteOffset":282532,
			"target":34962
		},
		{
			"buffer":0,
			"byteLength":9012,
			"byteOffset":313072,
			"target":34963
		}
	],
	"samplers":[
		{
			"magFilter":9729,
			"minFilter":9987
		}
	],
	"buffers":[
		{
			"byteLength":322084,
			"uri":"neutral_props_castle_tower_01.bin"
		}
	]
}
